<?xml version="1.0" encoding="UTF-8"?>
<svg width="16px" height="16px" viewBox="0 0 16 16" version="1.1" xmlns="http://www.w3.org/2000/svg" xmlns:xlink="http://www.w3.org/1999/xlink">
    <!-- Generator: Sketch 47.1 (45422) - http://www.bohemiancoding.com/sketch -->
    <title>icon/ic-search16</title>
    <desc>Created with Sketch.</desc>
    <defs></defs>
    <g id="Symbols" stroke="none" stroke-width="1" fill="none" fill-rule="evenodd">
        <g id="icon/ic-search16" fill="#666666">
            <g id="e984">
                <path d="M14.8784866,14.1582649 L10.21236,9.48899388 C10.6498087,8.95397345 10.9616943,8.36626123 11.148015,7.72585806 C11.3343366,7.08545405 11.4031945,6.44505087 11.3545888,5.8046477 C11.3059831,5.16424369 11.1399146,4.54410639 10.8563825,3.94423498 C10.5728504,3.34436274 10.1799559,2.80934231 9.67769984,2.33917287 C9.15924133,1.88521596 8.58812651,1.54474849 7.96435622,1.31776963 C7.34058592,1.09079159 6.7087144,0.985408013 6.06874249,1.00162138 C5.42876974,1.01783392 4.80094883,1.15158924 4.18527976,1.4028865 C3.56960986,1.65418459 3.01874811,2.03113048 2.53269284,2.53372583 C2.0466384,3.02010781 1.67399613,3.56728826 1.41476688,4.17526636 C1.15553762,4.78324446 1.01782177,5.41148844 1.00162015,6.0599983 C0.985418524,6.70850816 1.09073031,7.34485799 1.31755549,7.96904863 C1.54438151,8.59323927 1.8846197,9.16473895 2.3382709,9.68354684 C2.80812455,10.1861422 3.34278468,10.5793014 3.94225213,10.8630246 C4.54171958,11.146747 5.16144009,11.3129282 5.801412,11.3615658 C6.44138392,11.4102042 7.08135667,11.3412999 7.72132858,11.1548536 C8.3613005,10.9684074 8.94861694,10.6563116 9.48327707,10.2185673 L14.1494037,14.8878383 C14.2466151,14.9689026 14.3640787,15.005381 14.5017937,14.9972744 C14.6395096,14.9891685 14.7569724,14.9364767 14.8541838,14.8392006 C14.9513943,14.7581363 15,14.6487002 15,14.5108924 C15,14.3730837 14.9594955,14.2555418 14.8784866,14.1582649 Z M6.2024069,10.3644826 C5.06827932,10.3644826 4.0961696,9.95916332 3.28607776,9.14852641 C2.47598675,8.33788867 2.07094124,7.35701802 2.07094124,6.20591281 C2.07094124,5.07102014 2.47598675,4.09825535 3.28607776,3.28761844 C4.0961696,2.47698069 5.06827932,2.07166224 6.2024069,2.07166224 C7.35273693,2.07166224 8.33294787,2.47698069 9.14303888,3.28761844 C9.95313072,4.09825535 10.3581762,5.07102014 10.3581762,6.20591281 C10.3581762,6.75714578 10.2528644,7.28811369 10.0422409,7.7988149 C9.83161649,8.30951693 9.53188277,8.75942049 9.14303888,9.14852641 C8.754195,9.53763233 8.30459441,9.83756803 7.79423712,10.0483335 C7.283879,10.259099 6.75326948,10.3644826 6.2024069,10.3644826 Z" id="Shape"></path>
            </g>
        </g>
    </g>
</svg>