<?xml version="1.0" encoding="UTF-8"?>
<svg width="32px" height="32px" viewBox="0 0 32 32" version="1.1" xmlns="http://www.w3.org/2000/svg" xmlns:xlink="http://www.w3.org/1999/xlink">
    <!-- Generator: Sketch 40.1 (33804) - http://www.bohemiancoding.com/sketch -->
    <title>icon-notification-header@2x</title>
    <desc>Created with Sketch.</desc>
    <defs></defs>
    <g id="Icons" stroke="none" stroke-width="1" fill="none" fill-rule="evenodd">
        <g id="icon-notification-header" fill="#FFFFFF">
            <path d="M16,2.264 C13.546667,2.264 11.274667,2.88266602 9.184,4.12 C7.136,5.31466602 5.5146665,6.936 4.32,8.984 C3.08266699,11.074667 2.464,13.346667 2.464,15.8 C2.464,18.253333 3.0826665,20.525333 4.32,22.616 C5.5146665,24.664 7.136,26.2853335 9.184,27.48 C11.274667,28.717333 13.546667,29.336 16,29.336 C18.453334,29.336 20.725334,28.717333 22.816,27.48 C24.864,26.2853335 26.485334,24.664 27.68,22.616 C28.917334,20.525333 29.536,18.253333 29.536,15.8 C29.536,13.346667 28.917334,11.074667 27.68,8.984 C26.485334,6.936 24.864,5.31466602 22.816,4.12 C20.725334,2.88266602 18.453334,2.264 16,2.264 L16,2.264 Z M16,1.016 C18.688,1.016 21.184,1.688 23.488,3.032 C25.706666,4.33333398 27.466666,6.09333398 28.768,8.312 C30.112,10.616 30.784,13.112 30.784,15.8 C30.784,18.488 30.112,20.984 28.768,23.288 C27.466666,25.506667 25.706666,27.2666665 23.488,28.568 C21.184,29.912 18.688,30.584 16,30.584 C13.312,30.584 10.826667,29.912 8.544,28.568 C6.304,27.266667 4.544,25.506667 3.264,23.288 C1.92,20.984 1.248,18.488 1.248,15.8 C1.248,13.112 1.92,10.616 3.264,8.312 C4.544,6.09333398 6.304,4.33333398 8.544,3.032 C10.826667,1.688 13.312,1.016 16,1.016 L16,1.016 Z M22.72,21.144 C22.784,21.272 22.784,21.4426665 22.72,21.656 C22.634666,21.784 22.506666,21.88 22.336,21.944 C21.376,22.264 20.085334,22.552 18.464,22.808 C18.4,23.4266665 18.133334,23.949333 17.664,24.376 C17.194666,24.802667 16.650666,25.016 16.032,25.016 C15.413333,25.016 14.88,24.813333 14.432,24.408 C13.984,24.002667 13.706667,23.490667 13.6,22.872 C12.554667,22.7653335 11.594667,22.5733335 10.72,22.296 C10.250666,22.1466665 9.87733301,22.008 9.6,21.88 C9.472,21.816 9.376,21.7146665 9.312,21.576 C9.248,21.4373335 9.23733301,21.2933335 9.28,21.144 C9.28,21.1866665 9.38666699,20.824 9.6,20.056 C9.83466699,19.202667 10.016,18.370667 10.144,17.56 C10.357333,16.429334 10.464,15.426667 10.464,14.552 C10.464,13.250667 10.816,12.12 11.52,11.16 C12.224,10.2 13.162667,9.57066602 14.336,9.272 C14.208,8.952 14.144,8.664 14.144,8.408 C14.144,7.87466602 14.32,7.432 14.672,7.08 C15.024,6.728 15.466667,6.552 16,6.552 C16.533334,6.552 16.976,6.728 17.328,7.08 C17.68,7.432 17.856,7.87466602 17.856,8.408 C17.856,8.728 17.792,9.016 17.664,9.272 C18.837334,9.57066602 19.776,10.2 20.48,11.16 C21.184,12.12 21.536,13.250667 21.536,14.552 C21.536,15.448 21.642666,16.461333 21.856,17.592 C21.984,18.402666 22.165334,19.2346665 22.4,20.088 C22.613334,20.8346665 22.72,21.1866665 22.72,21.144 L22.72,21.144 Z M15.392,8.408 C15.392,8.6 15.445333,8.74933398 15.552,8.856 C15.658667,8.96266602 15.808,9.016 16,9.016 C16.192,9.016 16.341333,8.95733398 16.448,8.84 C16.554666,8.72266602 16.608,8.57866602 16.608,8.408 C16.608,8.23733398 16.549334,8.09333398 16.432,7.976 C16.314667,7.85866602 16.170667,7.8 16,7.8 C15.829333,7.8 15.685333,7.85866602 15.568,7.976 C15.450667,8.09333398 15.392,8.23733398 15.392,8.408 L15.392,8.408 Z M16,23.8 C16.255999,23.8 16.490666,23.72 16.704,23.56 C16.917334,23.4 17.056,23.192 17.12,22.936 C16.778668,22.978667 16.266667,23 15.584,23 L14.848,23 C14.933334,23.213333 15.082667,23.4 15.296,23.56 C15.509333,23.72 15.744,23.8 16,23.8 L16,23.8 Z M10.592,20.952 C11.68,21.3573335 12.96,21.6133335 14.432,21.72 C16.672,21.8906665 18.976,21.624 21.344,20.92 C21.024,19.6186665 20.821334,18.712 20.736,18.2 C20.458666,16.813333 20.32,15.597333 20.32,14.552 C20.32,13.293333 19.914666,12.264 19.104,11.464 C18.293332,10.664 17.258666,10.264 16,10.264 C14.741334,10.264 13.706667,10.664 12.896,11.464 C12.085333,12.264 11.68,13.293333 11.68,14.552 C11.68,15.64 11.541333,16.866667 11.264,18.232 C11.072,19.192 10.848,20.0986665 10.592,20.952 L10.592,20.952 Z" id="Profile-Icon-Copy"></path>
        </g>
    </g>
</svg>