<?xml version="1.0" encoding="UTF-8"?>
<svg width="24px" height="24px" viewBox="0 0 24 24" version="1.1" xmlns="http://www.w3.org/2000/svg" xmlns:xlink="http://www.w3.org/1999/xlink">
    <!-- Generator: Sketch 47.1 (45422) - http://www.bohemiancoding.com/sketch -->
    <title>icon/icon_alert-orange</title>
    <desc>Created with Sketch.</desc>
    <defs>
        <rect id="path-1" x="0" y="0" width="24" height="24"></rect>
    </defs>
    <g id="Symbols" stroke="none" stroke-width="1" fill="none" fill-rule="evenodd">
        <g id="icon/icon_alert-orange">
            <g id="icons/icon_team_grey">
                <g id="container" opacity="0">
                    <use fill-opacity="0.486328125" fill="#FF5858" fill-rule="evenodd" xlink:href="#path-1"></use>
                    <rect stroke="#FF5858" stroke-width="2" x="1" y="1" width="22" height="22"></rect>
                </g>
                <path d="M21.9027793,19.9056485 L12.5699697,3.34656858 C12.4491213,3.13140182 12.2330173,3 12.0000017,3 C11.766986,3 11.5508821,3.13140182 11.4300337,3.34656858 L2.09722408,19.9056485 C1.9715701,20.1285534 1.96743985,20.4074422 2.08642895,20.6345731 C2.20541804,20.8617041 2.42889504,21.0015128 2.67052524,20.9999876 L21.3361444,20.9999876 C21.5765821,20.9989071 21.7978508,20.8580754 21.9152044,20.631431 C22.0325579,20.4047867 22.0278101,20.1274528 21.9027793,19.9056485 L21.9027793,19.9056485 Z M4.4318975,19.2000008 L12.0033348,5.61328514 L19.5747722,19.2000008 L4.4318975,19.2000008 Z M12.0033348,8.76066774 C12.4626409,8.76066774 12.834982,9.08300481 12.834982,9.48062774 L12.834982,14.5203477 C12.834982,14.9179706 12.4626409,15.2403077 12.0033348,15.2403077 C11.5440288,15.2403077 11.1716876,14.9179706 11.1716876,14.5203477 L11.1716876,9.48062774 C11.1716876,9.08300481 11.5440288,8.76066774 12.0033348,8.76066774 Z M12.9630986,17.0600738 C12.9630986,17.6455364 12.523644,18.1201477 11.9815493,18.1201477 C11.4394546,18.1201477 11,17.6455364 11,17.0600738 C11,16.4746112 11.4394546,16 11.9815493,16 C12.523644,16 12.9630986,16.4746112 12.9630986,17.0600738 Z" id="Shape" fill="#ED8B00" fill-rule="nonzero"></path>
            </g>
        </g>
    </g>
</svg>