<?xml version="1.0" encoding="UTF-8"?>
<svg width="32px" height="32px" viewBox="0 0 32 32" version="1.1" xmlns="http://www.w3.org/2000/svg" xmlns:xlink="http://www.w3.org/1999/xlink">
    <!-- Generator: Sketch 40.1 (33804) - http://www.bohemiancoding.com/sketch -->
    <title>icon-help-header@2x</title>
    <desc>Created with Sketch.</desc>
    <defs></defs>
    <g id="Icons" stroke="none" stroke-width="1" fill="none" fill-rule="evenodd">
        <g id="icon-help-header" fill="#FFFFFF">
            <path d="M16,2.264 C13.546667,2.264 11.274667,2.88266602 9.184,4.12 C7.136,5.31466602 5.5146665,6.936 4.32,8.984 C3.08266699,11.074667 2.464,13.346667 2.464,15.8 C2.464,18.253333 3.0826665,20.525333 4.32,22.616 C5.5146665,24.664 7.136,26.2853335 9.184,27.48 C11.274667,28.717333 13.546667,29.336 16,29.336 C18.453334,29.336 20.725334,28.717333 22.816,27.48 C24.864,26.2853335 26.485334,24.664 27.68,22.616 C28.917334,20.525333 29.536,18.253333 29.536,15.8 C29.536,13.346667 28.917334,11.074667 27.68,8.984 C26.485334,6.936 24.864,5.31466602 22.816,4.12 C20.725334,2.88266602 18.453334,2.264 16,2.264 L16,2.264 Z M16,1.016 C18.688,1.016 21.184,1.688 23.488,3.032 C25.706666,4.33333398 27.466666,6.09333398 28.768,8.312 C30.112,10.616 30.784,13.112 30.784,15.8 C30.784,18.488 30.112,20.984 28.768,23.288 C27.466666,25.506667 25.706666,27.2666665 23.488,28.568 C21.184,29.912 18.688,30.584 16,30.584 C13.312,30.584 10.826667,29.912 8.544,28.568 C6.304,27.266667 4.544,25.506667 3.264,23.288 C1.92,20.984 1.248,18.488 1.248,15.8 C1.248,13.112 1.92,10.616 3.264,8.312 C4.544,6.09333398 6.304,4.33333398 8.544,3.032 C10.826667,1.688 13.312,1.016 16,1.016 L16,1.016 Z M16,25.016 C15.466667,25.016 15.024,24.84 14.672,24.488 C14.32,24.136 14.144,23.704 14.144,23.192 C14.144,22.68 14.32,22.2426665 14.672,21.88 C15.024,21.5173335 15.466667,21.336 16,21.336 C16.533334,21.336 16.976,21.512 17.328,21.864 C17.68,22.216 17.856,22.6586665 17.856,23.192 C17.856,23.725333 17.68,24.1626665 17.328,24.504 C16.976,24.845333 16.533334,25.016 16,25.016 L16,25.016 Z M16,22.552 C15.829333,22.552 15.685333,22.6106665 15.568,22.728 C15.450667,22.8453335 15.392,23 15.392,23.192 C15.392,23.384 15.450667,23.533333 15.568,23.64 C15.685333,23.746667 15.829333,23.8 16,23.8 C16.170667,23.8 16.314667,23.741333 16.432,23.624 C16.549334,23.506667 16.608,23.3573335 16.608,23.176 C16.608,22.994667 16.554666,22.8453335 16.448,22.728 C16.341333,22.6106665 16.192,22.552 16,22.552 L16,22.552 Z M14.784,20.12 C14.592,20.12 14.437333,20.0613335 14.32,19.944 C14.202667,19.8266665 14.144,19.672 14.144,19.48 L14.144,14.552 C14.144,14.402667 14.208,14.264 14.336,14.136 C14.464,14.008 14.613333,13.944 14.784,13.944 L16,13.944 C16.490666,13.944 16.922666,13.762667 17.296,13.4 C17.669334,13.037333 17.856,12.6 17.856,12.088 C17.856,11.576 17.68,11.144 17.328,10.792 C16.976,10.44 16.533334,10.264 16,10.264 C15.530667,10.264 15.125334,10.402666 14.784,10.68 C14.442667,10.957333 14.229334,11.330666 14.144,11.8 C14.08,12.12 13.877333,12.28 13.536,12.28 L11.072,12.12 C10.922667,12.12 10.794667,12.056 10.688,11.928 C10.581333,11.8 10.528,11.650667 10.528,11.48 L10.528,11.192 C10.656,10.296 10.981333,9.496 11.504,8.792 C12.026667,8.088 12.682667,7.53866602 13.472,7.144 C14.261333,6.74933398 15.104,6.552 16,6.552 C17.002666,6.552 17.930666,6.79733398 18.784,7.288 C19.637334,7.77866602 20.309334,8.45066602 20.8,9.304 C21.290666,10.157334 21.536,11.096001 21.536,12.12 C21.536,13.293333 21.2,14.354666 20.528,15.304 C19.856,16.253333 18.965334,16.930666 17.856,17.336 L17.856,19.48 C17.856,19.672 17.797334,19.8266665 17.68,19.944 C17.562666,20.0613335 17.418666,20.12 17.248,20.12 L14.784,20.12 Z M16.608,18.872 L16.608,16.856 C16.608,16.685333 16.656,16.541333 16.752,16.424 C16.848,16.306667 16.970666,16.237334 17.12,16.216 C18.037334,16.002667 18.8,15.512 19.408,14.744 C20.016,13.976 20.32,13.101333 20.32,12.12 C20.32,11.330667 20.128,10.605334 19.744,9.944 C19.36,9.28266602 18.837334,8.76 18.176,8.376 C17.514666,7.992 16.789332,7.8 16,7.8 C15.018667,7.8 14.149334,8.088 13.392,8.664 C12.634667,9.24 12.128,9.99733398 11.872,10.936 L13.184,11 C13.354667,10.402666 13.706667,9.92266602 14.24,9.56 C14.773333,9.19733398 15.36,9.016 16,9.016 C16.853334,9.016 17.578668,9.31466602 18.176,9.912 C18.773334,10.509334 19.072,11.245334 19.072,12.12 C19.072,12.653333 18.933334,13.154666 18.656,13.624 C18.378666,14.093333 18,14.472 17.52,14.76 C17.04,15.048 16.533334,15.192 16,15.192 L15.392,15.192 L15.392,18.872 L16.608,18.872 Z" id="Profile-Icon-Copy"></path>
        </g>
    </g>
</svg>