<?xml version="1.0" encoding="UTF-8"?>
<svg width="91px" height="15px" viewBox="0 0 91 15" version="1.1" xmlns="http://www.w3.org/2000/svg" xmlns:xlink="http://www.w3.org/1999/xlink">
    <!-- Generator: Sketch 47.1 (45422) - http://www.bohemiancoding.com/sketch -->
    <title>CONNECT</title>
    <desc>Created with Sketch.</desc>
    <defs></defs>
    <g id="Web" stroke="none" stroke-width="1" fill="none" fill-rule="evenodd">
        <g id="14_00_00_01_Currently_Unavailable" transform="translate(-174.000000, -24.000000)" fill="#86BC25">
            <g id="Header">
                <g id="Service-Name" transform="translate(146.000000, 19.000000)">
                    <path d="M34.9966777,5.93687708 C33.1694261,5.93687708 31.7309023,6.52158884 30.6810631,7.6910299 C29.631224,8.86047096 29.1063123,10.4617839 29.1063123,12.4950166 C29.1063123,14.5747612 29.601324,16.189363 30.5913621,17.3388704 C31.5814003,18.4883778 32.9966685,19.0631229 34.8372093,19.0631229 C36.0598068,19.0631229 37.1827191,18.9069783 38.2059801,18.5946844 L38.2059801,19.4916944 C37.2425201,19.8305665 36.0398743,20 34.5980066,20 C32.5514848,20 30.9402052,19.338877 29.7641196,18.0166113 C28.588034,16.6943455 28,14.8471879 28,12.4750831 C28,10.9933481 28.2807281,9.68771329 28.8421927,8.55813953 C29.4036573,7.42856578 30.2109582,6.55648148 31.2641196,5.94186047 C32.317281,5.32723945 33.5415213,5.01993355 34.9368771,5.01993355 C36.3588111,5.01993355 37.6312236,5.28571163 38.7541528,5.81727575 L38.345515,6.73421927 C37.2823867,6.20265515 36.1661188,5.93687708 34.9966777,5.93687708 L34.9966777,5.93687708 Z M53.2956811,12.4950166 C53.2956811,14.8073205 52.7176138,16.6362059 51.5614618,17.9817276 C50.4053098,19.3272493 48.8106414,20 46.7774086,20 C44.7508204,20 43.1594742,19.3272493 42.0033223,17.9817276 C40.8471703,16.6362059 40.269103,14.8006761 40.269103,12.4750831 C40.269103,10.1561346 40.8521536,8.33057145 42.0182724,6.99833887 C43.1843912,5.6661063 44.7773985,5 46.7973422,5 C48.830575,5 50.4219212,5.66942852 51.5714286,7.00830565 C52.720936,8.34718277 53.2956811,10.1760681 53.2956811,12.4950166 L53.2956811,12.4950166 Z M41.3754153,12.4950166 C41.3754153,14.5814058 41.8405269,16.1943465 42.7707641,17.333887 C43.7010013,18.4734276 45.0365361,19.0431894 46.7774086,19.0431894 C48.5315702,19.0431894 49.8720884,18.478411 50.7990033,17.3488372 C51.7259183,16.2192635 52.1893688,14.6013394 52.1893688,12.4950166 C52.1893688,10.3953383 51.7259183,8.78571988 50.7990033,7.66611296 C49.8720884,6.54650603 48.5382147,5.98671096 46.7973422,5.98671096 C45.0631143,5.98671096 43.7259183,6.55148937 42.7857143,7.68106312 C41.8455102,8.81063688 41.3754153,10.415272 41.3754153,12.4950166 L41.3754153,12.4950166 Z M67.2392027,19.8006645 L66.2126246,19.8006645 L57.5813953,6.86378738 L57.5016611,6.86378738 C57.5813957,8.40532332 57.6212625,9.56810239 57.6212625,10.3521595 L57.6212625,19.8006645 L56.6445183,19.8006645 L56.6445183,5.22923588 L57.6611296,5.22923588 L66.282392,18.1461794 L66.3421927,18.1461794 C66.2823917,16.9501601 66.2524917,15.8139589 66.2524917,14.7375415 L66.2524917,5.22923588 L67.2392027,5.22923588 L67.2392027,19.8006645 Z M81.9601329,19.8006645 L80.9335548,19.8006645 L72.3023256,6.86378738 L72.2225914,6.86378738 C72.302326,8.40532332 72.3421927,9.56810239 72.3421927,10.3521595 L72.3421927,19.8006645 L71.3654485,19.8006645 L71.3654485,5.22923588 L72.3820598,5.22923588 L81.0033223,18.1461794 L81.0631229,18.1461794 C81.003322,16.9501601 80.9734219,15.8139589 80.9734219,14.7375415 L80.9734219,5.22923588 L81.9601329,5.22923588 L81.9601329,19.8006645 Z M94.0498339,19.8006645 L86.0863787,19.8006645 L86.0863787,5.22923588 L94.0498339,5.22923588 L94.0498339,6.16611296 L87.10299,6.16611296 L87.10299,11.6777409 L93.6611296,11.6777409 L93.6611296,12.6146179 L87.10299,12.6146179 L87.10299,18.8637874 L94.0498339,18.8637874 L94.0498339,19.8006645 Z M103.568106,5.93687708 C101.740855,5.93687708 100.302331,6.52158884 99.2524917,7.6910299 C98.2026526,8.86047096 97.6777409,10.4617839 97.6777409,12.4950166 C97.6777409,14.5747612 98.1727525,16.189363 99.1627907,17.3388704 C100.152829,18.4883778 101.568097,19.0631229 103.408638,19.0631229 C104.631235,19.0631229 105.754148,18.9069783 106.777409,18.5946844 L106.777409,19.4916944 C105.813949,19.8305665 104.611303,20 103.169435,20 C101.122913,20 99.5116338,19.338877 98.3355482,18.0166113 C97.1594626,16.6943455 96.5714286,14.8471879 96.5714286,12.4750831 C96.5714286,10.9933481 96.8521567,9.68771329 97.4136213,8.55813953 C97.9750859,7.42856578 98.7823868,6.55648148 99.8355482,5.94186047 C100.88871,5.32723945 102.11295,5.01993355 103.508306,5.01993355 C104.93024,5.01993355 106.202652,5.28571163 107.325581,5.81727575 L106.916944,6.73421927 C105.853815,6.20265515 104.737547,5.93687708 103.568106,5.93687708 L103.568106,5.93687708 Z M113.82392,19.8006645 L112.797342,19.8006645 L112.797342,6.18604651 L108.063123,6.18604651 L108.063123,5.22923588 L118.55814,5.22923588 L118.55814,6.18604651 L113.82392,6.18604651 L113.82392,19.8006645 Z" id="CONNECT"></path>
                </g>
            </g>
        </g>
    </g>
</svg>