<?xml version="1.0" encoding="UTF-8"?>
<svg width="103px" height="20px" viewBox="0 0 103 20" version="1.1" xmlns="http://www.w3.org/2000/svg" xmlns:xlink="http://www.w3.org/1999/xlink">
    <!-- Generator: Sketch 47.1 (45422) - http://www.bohemiancoding.com/sketch -->
    <title>Deloitte_Logo</title>
    <desc>Created with Sketch.</desc>
    <defs></defs>
    <g id="Web" stroke="none" stroke-width="1" fill="none" fill-rule="evenodd">
        <g id="06.0_Overview" transform="translate(-23.000000, -21.000000)">
            <g id="Header">
                <g id="Deloitte_Logo" transform="translate(23.000000, 21.000000)">
                    <path d="M97.6082474,17.0812903 C97.6082474,15.6 98.8350515,14.3716129 100.314433,14.3716129 C101.793814,14.3716129 103.020619,15.6 103.020619,17.0812903 C103.020619,18.5625806 101.793814,19.7909677 100.314433,19.7909677 C98.8350515,19.7909677 97.6082474,18.5625806 97.6082474,17.0812903" id="Shape" fill="#86BC25"></path>
                    <path d="M16.2783505,9.71096774 C16.2783505,12.8541935 15.4484536,15.2387097 13.7525773,16.9367742 C12.056701,18.6348387 9.71134021,19.4658065 6.6443299,19.4658065 L0.762886598,19.4658065 L0.762886598,0.678709677 L7.11340206,0.678709677 C10.0360825,0.678709677 12.3092784,1.43741935 13.9329897,2.99096774 C15.4845361,4.58064516 16.2783505,6.78451613 16.2783505,9.71096774 M11.1546392,9.8916129 C11.1546392,8.15741935 10.8298969,6.89290323 10.1443299,6.06193548 C9.49484536,5.23096774 8.48453608,4.83354839 7.11340206,4.83354839 L5.67010309,4.83354839 L5.67010309,15.3470968 L6.78865979,15.3470968 C8.30412371,15.3470968 9.38659794,14.9135484 10.1082474,14.0103226 C10.7938144,13.0709677 11.1546392,11.7341935 11.1546392,9.8916129" id="Shape" fill="#FFFFFF"></path>
                    <rect id="Rectangle-path" fill="#FFFFFF" x="32.6958763" y="0.642580645" width="4.72680412" height="18.8593548"></rect>
                    <path d="M52.8659794,12.4567742 C52.8659794,14.7329032 52.2525773,16.5393548 51.0618557,17.803871 C49.871134,19.0683871 48.1752577,19.7187097 46.0103093,19.7187097 C43.9536082,19.7187097 42.2938144,19.0683871 41.0670103,17.7677419 C39.8402062,16.4670968 39.2268041,14.6967742 39.2268041,12.4567742 C39.2268041,10.1806452 39.8402062,8.41032258 41.0309278,7.14580645 C42.2216495,5.88129032 43.9175258,5.26709677 46.0824742,5.26709677 C47.4175258,5.26709677 48.6082474,5.55612903 49.6546392,6.13419355 C50.7010309,6.71225806 51.4587629,7.54322581 52.0360825,8.66322581 C52.5773196,9.71096774 52.8659794,10.9754839 52.8659794,12.4567742 M44.0257732,12.4567742 C44.0257732,13.6490323 44.1701031,14.5883871 44.4948454,15.2025806 C44.8195876,15.8167742 45.3247423,16.1419355 46.0824742,16.1419355 C46.8041237,16.1419355 47.3453608,15.8167742 47.6340206,15.2025806 C47.9226804,14.5883871 48.1030928,13.6490323 48.1030928,12.4567742 C48.1030928,11.2645161 47.9587629,10.3612903 47.6340206,9.74709677 C47.3453608,9.13290323 46.8041237,8.84387097 46.0824742,8.84387097 C45.3608247,8.84387097 44.8556701,9.13290323 44.5309278,9.74709677 C44.1701031,10.3612903 44.0257732,11.2645161 44.0257732,12.4567742" id="Shape" fill="#FFFFFF"></path>
                    <rect id="Rectangle-path" fill="#FFFFFF" x="54.742268" y="5.48387097" width="4.72680412" height="14.0180645"></rect>
                    <rect id="Rectangle-path" fill="#FFFFFF" x="54.742268" y="0.642580645" width="4.72680412" height="3.14322581"></rect>
                    <path d="M68.9948454,15.9251613 C69.6443299,15.9251613 70.4020619,15.7806452 71.2680412,15.4554839 L71.2680412,18.996129 C70.6185567,19.2851613 70.0412371,19.4658065 69.4639175,19.6103226 C68.8865979,19.7187097 68.2010309,19.7909677 67.443299,19.7909677 C65.8556701,19.7909677 64.7371134,19.3935484 64.0154639,18.5987097 C63.3298969,17.803871 62.9690722,16.5754839 62.9690722,14.9496774 L62.9690722,9.09677419 L61.3092784,9.09677419 L61.3092784,5.48387097 L62.9690722,5.48387097 L62.9690722,1.90709677 L67.7319588,1.07612903 L67.7319588,5.48387097 L70.7268041,5.48387097 L70.7268041,9.09677419 L67.7319588,9.09677419 L67.7319588,14.5522581 C67.7319588,15.4554839 68.128866,15.9251613 68.9948454,15.9251613" id="Shape" fill="#FFFFFF"></path>
                    <path d="M79.8917526,15.9251613 C80.5412371,15.9251613 81.2989691,15.7806452 82.1649485,15.4554839 L82.1649485,18.996129 C81.5154639,19.2851613 80.9381443,19.4658065 80.3608247,19.6103226 C79.7835052,19.7187097 79.0979381,19.7909677 78.3402062,19.7909677 C76.7525773,19.7909677 75.6340206,19.3935484 74.9123711,18.5987097 C74.2268041,17.803871 73.8659794,16.5754839 73.8659794,14.9496774 L73.8659794,9.09677419 L72.2061856,9.09677419 L72.2061856,5.48387097 L73.8659794,5.48387097 L73.8659794,1.87096774 L78.628866,1.11225806 L78.628866,5.48387097 L81.6237113,5.48387097 L81.6237113,9.09677419 L78.628866,9.09677419 L78.628866,14.5522581 C78.628866,15.4554839 79.0618557,15.9251613 79.8917526,15.9251613" id="Shape" fill="#FFFFFF"></path>
                    <path d="M94.757732,6.89290323 C93.6391753,5.80903226 92.0515464,5.23096774 89.9948454,5.23096774 C87.8298969,5.23096774 86.1701031,5.84516129 85.0154639,7.10967742 C83.8608247,8.37419355 83.2835052,10.1806452 83.2835052,12.5651613 C83.2835052,14.8412903 83.8969072,16.6116129 85.1597938,17.876129 C86.4226804,19.1045161 88.1907216,19.7187097 90.4639175,19.7187097 C91.5463918,19.7187097 92.4845361,19.6464516 93.2783505,19.5019355 C94.0721649,19.3574194 94.8298969,19.1045161 95.5515464,18.7070968 L94.8298969,15.563871 C94.2886598,15.7806452 93.7835052,15.9612903 93.314433,16.0696774 C92.628866,16.2141935 91.871134,16.3225806 91.0412371,16.3225806 C90.1391753,16.3225806 89.4175258,16.1058065 88.8762887,15.6722581 C88.3350515,15.2387097 88.0824742,14.6245161 88.0463918,13.8296774 L96.4536082,13.8296774 L96.4536082,11.6258065 C96.4536082,9.56645161 95.8762887,7.97677419 94.757732,6.89290323 L94.757732,6.89290323 Z M88.1185567,10.7587097 C88.1907216,10 88.4072165,9.42193548 88.7680412,9.06064516 C89.128866,8.69935484 89.5979381,8.51870968 90.1752577,8.51870968 C90.7886598,8.51870968 91.257732,8.73548387 91.6185567,9.13290323 C91.9793814,9.53032258 92.1597938,10.0722581 92.1958763,10.7587097 L88.1185567,10.7587097 L88.1185567,10.7587097 Z" id="Shape" fill="#FFFFFF"></path>
                    <path d="M29.1958763,6.89290323 C28.0773196,5.80903226 26.4896907,5.23096774 24.4329897,5.23096774 C22.2680412,5.23096774 20.6082474,5.84516129 19.4536082,7.10967742 C18.2989691,8.37419355 17.7216495,10.1806452 17.7216495,12.5651613 C17.7216495,14.8412903 18.3350515,16.6116129 19.5979381,17.876129 C20.8608247,19.1045161 22.628866,19.7187097 24.9020619,19.7187097 C25.9845361,19.7187097 26.9226804,19.6464516 27.7164948,19.5019355 C28.5103093,19.3574194 29.2680412,19.1045161 29.9896907,18.7070968 L29.2680412,15.563871 C28.7268041,15.7806452 28.2216495,15.9612903 27.7525773,16.0696774 C27.0670103,16.2141935 26.3092784,16.3225806 25.4793814,16.3225806 C24.5773196,16.3225806 23.8556701,16.1058065 23.314433,15.6722581 C22.7731959,15.2387097 22.5206186,14.6245161 22.4845361,13.8296774 L30.8917526,13.8296774 L30.8917526,11.6258065 C30.8556701,9.56645161 30.314433,7.97677419 29.1958763,6.89290323 L29.1958763,6.89290323 Z M22.5206186,10.7587097 C22.5927835,10 22.8092784,9.42193548 23.1701031,9.06064516 C23.5309278,8.69935484 24,8.51870968 24.5773196,8.51870968 C25.1907216,8.51870968 25.6597938,8.73548387 26.0206186,9.13290323 C26.3814433,9.53032258 26.5618557,10.0722581 26.5979381,10.7587097 L22.5206186,10.7587097 L22.5206186,10.7587097 Z" id="Shape" fill="#FFFFFF"></path>
                </g>
            </g>
        </g>
    </g>
</svg>